static_grf.mot
version=1
nRows=20
nColumns 19
inDegrees=yes
endheader
time	1_ground_force_vx	1_ground_force_vy	1_ground_force_vz	1_ground_force_px	1_ground_force_py	1_ground_force_pz	1_ground_torque_x	1_ground_torque_y	1_ground_torque_z	2_ground_force_vx	2_ground_force_vy	2_ground_force_vz	2_ground_force_px	2_ground_force_py	2_ground_force_pz	2_ground_torque_x	2_ground_torque_y	2_ground_torque_z
            1.002500	            4.575579	          251.385426	          -20.899078	           -0.277303	            0.006176	           -0.396258	            0.021345	            1.172705	           -0.097494	           -5.217251	          227.882917	           22.355311	           -0.235066	            0.005642	           -0.699566	            0.031787	           -1.388395	           -0.136202
            1.003000	            4.713288	          251.024725	          -20.855109	           -0.277166	            0.006177	           -0.396520	            0.023528	            1.253097	           -0.104107	           -5.543186	          227.329113	           22.400408	           -0.235164	            0.005640	           -0.699068	            0.033240	           -1.363207	           -0.134327
            1.003500	            4.255718	          251.924195	          -20.437403	           -0.277570	            0.006176	           -0.396180	            0.019888	            1.177312	           -0.095510	           -5.217169	          227.882247	           22.543024	           -0.234991	            0.005641	           -0.699404	            0.031095	           -1.358228	           -0.134361
            1.004000	            4.393331	          250.842825	          -20.488238	           -0.277506	            0.006176	           -0.396345	            0.020822	            1.188877	           -0.097105	           -5.356951	          227.696732	           22.777067	           -0.234807	            0.005641	           -0.699041	            0.032726	           -1.391010	           -0.139146
            1.004500	            4.163921	          250.662908	          -20.580154	           -0.277565	            0.006176	           -0.396165	            0.020208	            1.216498	           -0.099878	           -5.447410	          226.776329	           22.586109	           -0.235253	            0.005639	           -0.698909	            0.032410	           -1.349227	           -0.134378
            1.005000	            4.438392	          251.384810	          -20.761169	           -0.277325	            0.006175	           -0.396087	            0.020903	            1.183910	           -0.097776	           -5.170799	          228.065051	           22.966014	           -0.235048	            0.005644	           -0.700087	            0.031487	           -1.388797	           -0.139851
            1.005500	            4.301093	          250.122924	          -20.766238	           -0.278083	            0.006178	           -0.396647	            0.020987	            1.220474	           -0.101329	           -5.216587	          227.698746	           22.354654	           -0.235471	            0.005639	           -0.699125	            0.032396	           -1.414071	           -0.138829
            1.006000	            4.805202	          251.024350	          -20.763625	           -0.277298	            0.006175	           -0.395903	            0.024157	            1.261944	           -0.104382	           -5.544433	          227.696725	           22.589434	           -0.235392	            0.005641	           -0.699613	            0.033851	           -1.390193	           -0.137919
            1.006500	            4.759733	          250.843485	          -20.626716	           -0.277486	            0.006176	           -0.396280	            0.024171	            1.273835	           -0.104747	           -5.452768	          228.249850	           22.497509	           -0.234823	            0.005642	           -0.699450	            0.032514	           -1.361014	           -0.134149
            1.007000	            4.163481	          251.204295	          -20.715403	           -0.277489	            0.006176	           -0.396337	            0.019175	            1.156920	           -0.095405	           -5.307546	          226.961145	           22.539778	           -0.235331	            0.005638	           -0.698856	            0.031804	           -1.360023	           -0.135065
            1.007500	            4.439255	          251.022903	          -20.441723	           -0.277295	            0.006175	           -0.396081	            0.022147	            1.252351	           -0.101984	           -5.263978	          227.881744	           22.636900	           -0.235350	            0.005641	           -0.699573	            0.029687	           -1.285189	           -0.127666
            1.008000	            4.301597	          250.482472	          -20.535412	           -0.277211	            0.006176	           -0.396334	            0.020277	            1.180758	           -0.096803	           -5.073296	          226.961990	           22.539679	           -0.235063	            0.005640	           -0.699107	            0.031422	           -1.405731	           -0.139604
            1.008500	            4.576637	          251.203391	          -20.487147	           -0.277484	            0.006175	           -0.396063	            0.021763	            1.194553	           -0.097423	           -5.169593	          227.697743	           22.683131	           -0.235068	            0.005642	           -0.699790	            0.031065	           -1.368256	           -0.136305
            1.009000	            4.117850	          250.663292	          -20.671752	           -0.277442	            0.006176	           -0.396185	            0.018991	            1.156004	           -0.095334	           -5.030434	          228.067065	           22.543601	           -0.235548	            0.005640	           -0.699513	            0.030998	           -1.405388	           -0.138918
            1.009500	            4.530225	          251.204366	          -20.716313	           -0.277189	            0.006175	           -0.395954	            0.021483	            1.191266	           -0.098241	           -5.165770	          226.594208	           22.303764	           -0.235339	            0.005636	           -0.698143	            0.031138	           -1.365861	           -0.134442
            1.010000	            4.758906	          249.763661	          -21.044057	           -0.277760	            0.006178	           -0.396664	            0.023359	            1.225980	           -0.103296	           -5.310286	          227.698407	           22.354694	           -0.234734	            0.005642	           -0.699372	            0.032560	           -1.396149	           -0.137069
            1.010500	            4.576655	          250.482525	          -20.536095	           -0.277288	            0.006177	           -0.396473	            0.023003	            1.258951	           -0.103217	           -5.497583	          227.696894	           22.589414	           -0.234835	            0.005643	           -0.699702	            0.032293	           -1.337516	           -0.132693
            1.011000	            4.393493	          251.202963	          -20.394980	           -0.277610	            0.006174	           -0.395681	            0.019901	            1.137889	           -0.092384	           -5.070741	          226.226234	           22.302410	           -0.234834	            0.005637	           -0.698089	            0.031075	           -1.386389	           -0.136677
            1.011500	            4.347326	          250.482678	          -20.581382	           -0.277351	            0.006174	           -0.395891	            0.020499	            1.181097	           -0.097047	           -5.306217	          226.592863	           22.538464	           -0.235413	            0.005639	           -0.699050	            0.032132	           -1.372126	           -0.136481
            1.012000	            4.164751	          250.481266	          -20.259936	           -0.277548	            0.006176	           -0.396141	            0.019214	            1.155617	           -0.093471	           -5.075311	          227.514610	           22.494722	           -0.235070	            0.005640	           -0.699188	            0.030735	           -1.377768	           -0.136222
